<svg id="Layer_1" data-name="Layer 1" xmlns="http://www.w3.org/2000/svg" viewBox="0 0 49.14 52.54"><defs><style>.cls-1{fill:#f99a12;}</style></defs><title>2</title><path class="cls-1" d="M150.38,414.14c0.9,0.22,2.5.29,2.59,0.7,0.5,2.25,2.33,1.65,3.95,2.21-0.09-2.21,1.08-4.27-.54-6.32-0.35-.45,0-1.49.07-1.8l-4.27-5a7.06,7.06,0,0,0,.81-1.76c0.28-1.32.75-2.29,2.25-2.5a2.93,2.93,0,0,1,3.51,1.86,27.12,27.12,0,0,1,.8,4.48c2.34-.78,3.81,1.11,5.47,2.66a48.18,48.18,0,0,1,7.84,9.44c1.58,2.49,3.07,4.57,2.41,7.64s-1.16,6.2-1.75,9.3c-0.54,2.82-.31,3.53,2.36,4.27,1.61,0.45,2.25,1,2.56,2.75,0.39,2.21,1.6,4.27,2.42,6.41a1.57,1.57,0,0,1,.07,1.14c-1.42,2.51-4.13,3.24-6.94,1.85l1.89-1.76c-1.34-1.78-2.38-3.9-4.05-5.17a27.33,27.33,0,0,0-6.74-3.24,22.54,22.54,0,0,1-9-6.46c1.8-2,3.57.25,5.61,0,0.17-1.21.38-2.51,0.54-3.82a22.41,22.41,0,0,1,.52-4.51c1-2.88.09-5.11-2-7.15a21,21,0,0,1-1.77,2.83,2.15,2.15,0,0,1-1.76.75c-2.66-1.46-5.29-3-7.8-4.73-0.67-.46-0.87-1.6-1.33-2.49a7.54,7.54,0,0,1-2-.67c-4.35-2.83-8.65-5.74-13-8.57-1.17-.76-1.65-1.54-0.76-2.82s1.69-.92,2.73-0.2c3.8,2.62,7.69,5.12,11.46,7.79a40.18,40.18,0,0,1,3.77,3.42Z" transform="translate(-131.84 -399.59)"/></svg>