<svg id="Layer_1" data-name="Layer 1" xmlns="http://www.w3.org/2000/svg" viewBox="0 0 83.58 57.09"><defs><style>.cls-1{fill:#f99a12;}.cls-2,.cls-3{fill:none;stroke:#f99a12;stroke-miterlimit:10;}.cls-3{opacity:0.64;}</style></defs><title>3</title><path class="cls-1" d="M365,449.88c0.22-.52.73-1.14,0.6-1.53-0.8-2.26.8-3.61,1.81-5.16,2.43-3.73,5.55-7.15,7.23-11.18,2.23-5.36,3.34-11.22-.46-16.6-1.37-1.95-.71-3.92-0.43-5.84a23.83,23.83,0,0,0,.44-6.74c-0.48-3.72,1.08-4.8,5.05-4.21a12.39,12.39,0,0,1,.64-1.49c1.86-3.16,4.35-3.48,7.25-1a24.55,24.55,0,0,0,2.51,1.59,2.3,2.3,0,0,1,1.08.91c0.19,2.3,2.13,2.62,3.66,3.37,3.06,1.49,6.16,2.92,9.52,4.5a6.72,6.72,0,0,1-7.12-.95c-1.94-1.38-4-2.6-6.06-4l-2.52,1.87c1.79,2.91.58,6.79-2.75,8.87,1.22,6.87,6.59,11.78,8.35,18.11l3.82-2.14,0.57,0.58c-0.43,2.57-.37,5.36-1.4,7.66a49.29,49.29,0,0,1-5.43,8.41c-1.35,1.86-1.3,3.18.8,4.3a5.62,5.62,0,0,1,1,1.49,34.45,34.45,0,0,1-4.14-.26,14.43,14.43,0,0,1-3.35-1.14c-0.74-.35-1.61-0.8-0.79-2a12.42,12.42,0,0,0,1.4-2.63,6.82,6.82,0,0,0,.2-1.82,3.06,3.06,0,0,1,.11-1c1-2.14,2-4.26,3.11-6.52l-5.52-6.36c-1.86,2.78-3.53,5.41-5.34,7.94-1.05,1.47-2.43,2.7-3.49,4.16a46.3,46.3,0,0,0-4.13,6.33c-0.79,1.58-3,2-3,4l-3.22-.4v-1.3Zm22.25-50.68c-4,.05-4.3.19-4.39,3.28a38.93,38.93,0,0,0,.69,5.95l1,0.09Z" transform="translate(-364.97 -394.49)"/><line class="cls-2" x1="50.23" y1="15.78" x2="83.58" y2="15.78"/><line class="cls-2" x1="54.53" y1="20.47" x2="83.58" y2="20.47"/><line class="cls-2" x1="50.23" y1="25.52" x2="83.58" y2="25.52"/><line class="cls-3" x1="58.1" y1="31.92" x2="83.58" y2="31.92"/><line class="cls-3" x1="61.38" y1="37.72" x2="83.58" y2="37.72"/></svg>