<svg id="Layer_1" data-name="Layer 1" xmlns="http://www.w3.org/2000/svg" viewBox="0 0 76.75 54.03"><defs><style>.cls-1{fill:#f99a12;}</style></defs><title>4</title><path class="cls-1" d="M633.31,399.91c-1.93,1.19-3.83,2.42-5.79,3.54a1.79,1.79,0,0,0-1.13,2,9.73,9.73,0,0,1,0,1.54c3.16,0.86,6.23,1.6,9.23,2.55a20.35,20.35,0,0,1,7.46,3.9c2.71,2.38,2.8,5,.23,7.45a3.92,3.92,0,0,1-1,.85c-1.58.69-1.9,1.89-1.48,3.55h4.62A16,16,0,0,1,644,428a9,9,0,0,1-2.33,2,1.73,1.73,0,0,0-.9,2.27h4.33a4.25,4.25,0,0,1-1.4,3,8,8,0,0,1-2,1.62c-1.15.58-1.25,1.41-.95,2.6h4.35a5.49,5.49,0,0,1-2.3,3.81,26.09,26.09,0,0,1-9.21,4.36,87.88,87.88,0,0,1-19,3.12,4,4,0,0,1-.52,0V447l7.67-.71V443l-7.77.68v-3.9l4-.36c1-.09,1.92-0.19,2.89-0.25a0.83,0.83,0,0,0,1-1c-0.06-.66,0-1.32,0-2.16-1.06.12-2,.25-2.94,0.33-2,.16-3.93.33-5.9,0.41a2.26,2.26,0,0,1-1.38-.45,7.94,7.94,0,0,0-9.46,0,2.37,2.37,0,0,1-1.49.44c-2.85-.18-5.7-0.43-8.7-0.68a16.39,16.39,0,0,0,0,2.43,1.2,1.2,0,0,0,.89.66c2,0.22,4,.36,6,0.52,0.33,0,.66.08,0.91,0.11v3.92L592,443c0,1,0,1.93,0,2.87a1.16,1.16,0,0,0,.84.45c1.92,0.21,3.85.37,5.78,0.54l1.12,0.12v3.86c-1.22-.08-2.4-0.11-3.56-0.23a80.49,80.49,0,0,1-17.38-3.33,25,25,0,0,1-7.76-3.85,5.28,5.28,0,0,1-2.29-3.88h4.27a2,2,0,0,0-1-2.68,6.11,6.11,0,0,1-3.34-4.6h4.35a1.67,1.67,0,0,0-.87-2.27,6.86,6.86,0,0,1-3.33-3.89,7.29,7.29,0,0,1-.12-0.77h4.37c0.25-1.52.14-2.57-1.3-3.54-4.17-2.78-4.13-6.27,0-9.16,3.34-2.35,7.2-3.5,11.1-4.5,1.71-.44,1.72-0.41,1.72-2.23,0-2,0-3.95,0-5.92a3.34,3.34,0,0,1,.34-1c0.29,0.11.57,0.24,0.86,0.32a4.29,4.29,0,0,0,1.13.28,57.14,57.14,0,0,1,5.84.24c-1.9,1.18-3.77,2.43-5.73,3.51a2,2,0,0,0-1.19,2.21,11.91,11.91,0,0,1,0,1.62l16.89-1.83v-1.79l-1.58-.16v-6.63h12v6.63l-1.6.14v1.9l13.53,1.29q0-3.06,0-6.11a5.21,5.21,0,0,1,0-1c0.13-.66.48-0.87,1.11-0.47a2.41,2.41,0,0,0,1.12.43c2,0,3.93,0,5.89,0Zm-6.94,14.91c3.3,1,6.58,1.85,9.33,4-1.55,1.25-2,1.26-3.54.23a17.73,17.73,0,0,0-6.26-2.43l-1.2,4.51,2.88,0.58c-8.44,2.75-37.5,2.71-40.52,0l2.46-.49-1.27-4.69a19.17,19.17,0,0,0-6.72,2.68c-1.27.92-2.14,0.83-3.33-.4,2.84-2.13,6.23-3,9.61-4l-1.37-5c-3.94.92-7.79,1.72-11.12,4a5.66,5.66,0,0,0-1,.9c-1.16,1.3-1.25,2.68,0,3.84a14.2,14.2,0,0,0,3.51,2.3,38.55,38.55,0,0,0,11.47,3c4.6,0.58,9.24,1,13.87,1.16a110.78,110.78,0,0,0,11.7-.11,108.47,108.47,0,0,0,11.28-1.32,34.61,34.61,0,0,0,10.44-3.06,12.25,12.25,0,0,0,3-2.2,2.39,2.39,0,0,0-.07-3.59,7,7,0,0,0-1.33-1.18c-3.18-2.05-6.8-2.88-10.55-3.71Zm-34.32,17.26a123.74,123.74,0,0,0,29.75,0v-4a123.42,123.42,0,0,1-29.75,0v4Zm33.72-22.68A102.34,102.34,0,0,0,608.15,408v4.57l16.37,1.62Zm-37.44-.3,1.41,5.2c1.72-.26,3.35-0.6,5-0.75,3.44-.3,6.89-0.49,10.33-0.76a1.38,1.38,0,0,0,1-.5c0.08-1.43,0-2.86,0-4.6ZM606,419.79v-5.11a84,84,0,0,0-15.83,1.39c0.4,1.46.8,2.76,1.09,4.1a0.73,0.73,0,0,0,1,.65c2.21-.24,4.42-0.48,6.64-0.64S603.6,419.92,606,419.79Zm18-3.69a85.31,85.31,0,0,0-15.8-1.42v5l14.58,1ZM636.33,425c-2.93.76-5.85,1.51-8.77,2.29a0.64,0.64,0,0,0-.36.47c0,1.13,0,2.26,0,3.61,2.17-.59,4.17-1,6.08-1.69,4-1.41,3-.43,3.14-4.46A0.71,0.71,0,0,0,636.33,425Zm-49.6,6.5c0-1.34-.06-2.31,0-3.26a1,1,0,0,0-1.06-1.2c-1.2-.22-2.39-0.51-3.57-0.82-1.52-.41-3-0.87-4.64-1.34,0,1.1,0,2.07,0,3a1,1,0,0,0,.46.76C580.79,429.6,583.65,430.49,586.73,431.47Zm-0.07,13.88c0.23-3.15.23-3.12-2.38-3.77-2.25-.56-4.48-1.19-6.8-1.82,0,0.8,0,1.58,0,2.35a0.93,0.93,0,0,0,.4.69A36.26,36.26,0,0,0,586.66,445.35Zm49.69-5.52c-2.93.73-5.77,1.43-8.61,2.16a0.85,0.85,0,0,0-.54.55c-0.06.91,0,1.82,0,3,2.39-.66,4.61-1.14,6.73-1.9,3.11-1.12,2.46-.34,2.47-3.72A0.14,0.14,0,0,0,636.36,439.84Zm-49.78-1.43c0.45-3.18.45-3.18-2.14-3.78-0.33-.08-0.65-0.14-1-0.23l-6-1.64c0,0.77,0,1.48,0,2.17a1,1,0,0,0,.51.71C580.82,436.58,583.64,437.47,586.57,438.41Zm49.77-5.55c-2.92.73-5.76,1.44-8.58,2.18a0.92,0.92,0,0,0-.56.63c-0.07.8,0,1.6,0,2.67,2.5-.71,4.81-1.24,7-2,2.77-1,2.14-.38,2.19-3.25A0.74,0.74,0,0,0,636.34,432.85Zm-25.93-27.31v-1.94h-6.49v1.94h6.49Zm-0.87-4.63c0.9-.31,2,0.28,2-0.82,0-.94-1.05-0.56-1.64-0.55s-1.52-.42-1.51.66C608.36,400.48,609.24,400.75,609.55,400.92Zm-5.88.17c0.69-.34,1.7-0.64,1.69-0.88-0.07-1.07-1-.65-1.66-0.67s-1.46-.34-1.47.62C602.22,400.45,603.1,400.74,603.66,401.09Z" transform="translate(-568.68 -396.84)"/></svg>