<svg id="Layer_1" data-name="Layer 1" xmlns="http://www.w3.org/2000/svg" viewBox="0 0 75.45 60.23"><defs><style>.cls-1{fill:#f99a12;}</style></defs><title>5</title><path class="cls-1" d="M842,406.11c-1.22,1.3-2.65,1.62-3.49.13-2.35-4.15-6.58-5.54-10.4-7.57-2-1.06-2.16-1.4-1.57-4.12a20.5,20.5,0,0,1,3.3,1.23c2.74,1.59,5.27,3.56,8.12,4.89a17.68,17.68,0,0,0,6.7,1.54c2.65,0.09,5.31-.43,8,0a3.26,3.26,0,0,0,2.57-1.26c1.78-2.52,3.65-3.22,6-1.85,1.8,1.05,2,3.16.47,5.63-0.22.36-.5,0.69-0.87,1.21l1.89,1.32-0.67.09c1,4.74-2.05,8-4,11.64s-1.51,7.67-1.84,11.49a147.19,147.19,0,0,1-2.8,19.79,4.52,4.52,0,0,1-2.65,2.62,5.25,5.25,0,0,1-3.74-.35c-0.89-.45-1.36-1.75-2-2.69a10.26,10.26,0,0,1-.56-1.13l-1.84,1.08a24.37,24.37,0,0,1-.38-2.44c-0.19-3.88,0-7.82-.6-11.64-0.84-5.21.15-10,1.94-14.79a14,14,0,0,1,1.31-2.2,18.19,18.19,0,0,0,1.46-2.45c0.65-1.59,1.15-3.24,1.75-5Zm6.5,37c1.24-4.39.94-8.86,0.47-13.81C846.81,434.13,848,438.63,848.45,443.1Zm-3-37.95c3.36,3.34,4.53,3.63,5.48,1.37Z" transform="translate(-787.21 -392.92)"/><path class="cls-1" d="M823.29,413.11c1.48,2.11,1.48,2.11-.17,6.07l-1-.76c-2.59,1-5.13,1.64-7.14,3-1,.71-1.31,2.75-1.6,4.26a24.2,24.2,0,0,0-.05,4.33l4.18,2.57a12,12,0,0,1,.42-2.56,7.68,7.68,0,0,1,1.33-1.73,10.76,10.76,0,0,1,1.63,1.4c3.64,4.64,2.83,10.41,3.88,15.7,0.38,1.89.34,3.78,3.11,3.43a3.44,3.44,0,0,1,1.5.85c-1.84,3.07-4.77,2.81-7.44,3.13a1.6,1.6,0,0,1-1.23-.92c-1.1-4.15-2.11-8.32-3.18-12.6h-5.95L809.8,443a3,3,0,0,1,1.25.41,11.58,11.58,0,0,1,2.34,3.26c0.15,0.41-1.15,1.69-2,2a43.17,43.17,0,0,1-15.82,3,3.16,3.16,0,0,0-1.77.38,4.7,4.7,0,0,1-6-.48c-0.84-1-.73-1.87.53-2.35,3.92-1.5,7.83-3.05,11.81-4.39,1.5-.5,2.4-0.9,3.06-2.67a10.88,10.88,0,0,0,.33-8,3.68,3.68,0,0,1-.11-2.34c0.91-2.41.11-4.79,0.09-7.18a53.84,53.84,0,0,1,.36-7.33c0.26-2,1.17-3.76,3.82-3.81a10,10,0,0,0-.3-2.14,4.08,4.08,0,0,1,2-5,3.91,3.91,0,0,1,5.21,2.11c0.31,0.78.66,1.55,1,2.38l-1.34.14-0.71,4.15,2.38,0.82a2.65,2.65,0,0,0,3.67-2.06,2.52,2.52,0,0,0-.68-1.32,11.94,11.94,0,0,0,0-2.7c-1.05-4-2.25-8-3.27-12.07a7.76,7.76,0,0,1,0-3.41c0.13-.6,1-1,1.48-1.56a5.68,5.68,0,0,1,1.11,1.62c1.13,4.68,2.17,9.38,3.28,14.06a1.44,1.44,0,0,0,.87.75A2.42,2.42,0,0,1,823.29,413.11Z" transform="translate(-787.21 -392.92)"/></svg>